<?xml version="1.0" encoding="UTF-8"?>
<svg id="Reconstructed_Visit_Icon_Platform" xmlns="http://www.w3.org/2000/svg" viewBox="0 0 48 48">
  <path fill="#702c20" fill-rule="evenodd" d="M 1.79 26.65 L 12.45 26.65 L 14.22 21.32 L 3.56 21.32 Z M 19 15.2 L 11.39 7.59 L 6.37 10.11 L 13.98 17.71 Z M 17.65 34.1 L 15.12 29.07 L 7.62 36.58 L 10.15 41.6 Z M 26.66 3.47 L 21.33 1.7 L 21.33 12.46 L 26.66 14.23 Z M 26.66 35.54 L 21.33 33.77 L 21.33 44.45 L 26.66 46.22 Z M 41.62 37.82 L 34.07 30.26 L 29.04 32.78 L 36.6 40.34 Z M 30.07 14.12 L 32.61 19.14 L 40.16 11.59 L 37.62 6.57 Z M 44.44 26.65 L 46.21 21.32 L 35.56 21.32 L 33.79 26.65 Z"/>
</svg>
