<?xml version="1.0" encoding="UTF-8"?><svg id="Outlined" xmlns="http://www.w3.org/2000/svg" viewBox="0 0 48 48"><defs><style>.cls-1{fill:#7a261b;}</style></defs><path class="cls-1" d="M15.51,32.49l2.83-2.83c-3.12-3.12-3.12-8.19,0-11.31,3.12-3.12,8.19-3.12,11.31,0,3.12,3.12,3.12,8.19,0,11.31l2.83,2.83c4.68-4.68,4.68-12.29,0-16.97s-12.29-4.68-16.97,0-4.68,12.29,0,16.97Z"/><polygon class="cls-1" points="10.17 43 15.83 43 24 34.83 32.17 43 37.83 43 24 29.17 10.17 43"/><rect class="cls-1" x="5" y="21" width="4" height="4"/><rect class="cls-1" x="9" y="9" width="4" height="4"/><rect class="cls-1" x="22" y="5" width="4" height="4"/><rect class="cls-1" x="9" y="33" width="4" height="4"/><rect class="cls-1" x="39" y="21" width="4" height="4"/><rect class="cls-1" x="35" y="9" width="4" height="4"/><rect class="cls-1" x="35" y="33" width="4" height="4"/></svg>