<?xml version="1.0" encoding="UTF-8"?><svg id="Outlined" xmlns="http://www.w3.org/2000/svg" viewBox="0 0 48 48"><defs><style>.cls-1{fill:#7a261b;}</style></defs><polygon class="cls-1" points="39 5 13 5 13 9 39 9 39 43 43 43 43 9 39 5"/><polygon class="cls-1" points="5 43 9 43 9 28 5 32 5 43"/><rect class="cls-1" x="18" y="37" width="4" height="6"/><rect class="cls-1" x="26" y="13" width="4" height="6"/><polygon class="cls-1" points="17 10 13 14 13 23 5 23 5 27 13 27 17 27 31 27 31 43 35 43 35 27 35 23 17 23 17 10"/></svg>