<?xml version="1.0" encoding="UTF-8"?>
<svg xmlns="http://www.w3.org/2000/svg" viewBox="0 0 48 48">
  <path fill="none" stroke="#000000" stroke-width="0.4" fill-rule="evenodd" d="M 39 9 L 35 5 L 9 5 L 9 9 L 35 9 L 35 43 L 39 43 Z M 13 10 L 9 14 L 9 43 L 13 43 Z M 17 13 L 17 19 L 21 19 L 21 13 Z M 21 29 L 21 23 L 17 23 L 17 29 Z M 26 43 L 26 37 L 22 37 L 22 43 Z M 31 19 L 31 13 L 27 13 L 27 19 Z M 31 29 L 31 23 L 27 23 L 27 29 Z"/>
  <path fill="none" stroke="#E53E3E" stroke-width="0.4" stroke-dasharray="4 2" fill-rule="evenodd" d="M 17 13 L 21 13 L 21 19 L 17 19 Z"/>
  <path fill="none" stroke="#3182CE" stroke-width="0.4" stroke-dasharray="4 2" fill-rule="evenodd" d="M 27 13 L 31 13 L 31 19 L 27 19 Z"/>
  <path fill="none" stroke="#38A169" stroke-width="0.4" stroke-dasharray="4 2" fill-rule="evenodd" d="M 17 23 L 21 23 L 21 29 L 17 29 Z"/>
  <path fill="none" stroke="#DD6B20" stroke-width="0.4" stroke-dasharray="4 2" fill-rule="evenodd" d="M 22 37 L 26 37 L 26 43 L 22 43 Z"/>
  <path fill="none" stroke="#805AD5" stroke-width="0.4" stroke-dasharray="4 2" fill-rule="evenodd" d="M 27 23 L 31 23 L 31 29 L 27 29 Z"/>
  <path fill="none" stroke="#D69E2E" stroke-width="0.4" stroke-dasharray="4 2" fill-rule="evenodd" d="M 35 5 L 9 5 L 9 9 L 35 9 L 35 43 L 39 43 L 39 9 Z"/>
  <path fill="none" stroke="#E53E3E" stroke-width="0.4" stroke-dasharray="4 2" fill-rule="evenodd" d="M 9 10 L 13 10 L 13 34 L 9 34 Z"/>
  <path fill="none" stroke="#3182CE" stroke-width="0.4" stroke-dasharray="4 2" fill-rule="evenodd" d="M 9 14 L 13 14 L 13 10 Z M 13 38 L 9 38 L 9 43 L 13 43 Z"/>
</svg>
